[img]http://img718.imageshack.us/img718/1876/seasonofthewitch.jpg[/img]
 
http://www.imdb.com/title/tt0479997/

Source: Season.Of.The.Witch.2011.720p.BluRay.x264-iHD (thanks).

Subs: Arabic, Bulgarian, Danish, Dutch, English, Finnish, French, Greek, Hebrew, Hungarian, Indonesian, Italian, Norwegian, Persian, Polish, Portuguese, Romanian, Serbian, Slovenian, Spanish, Swedish and Turkish.

Sample and Screens included.

General
Complete name                    : Season Of The Witch-720p MP4 AAC BRRip 2011-CC.mp4
Format                           : MPEG-4
Format profile                   : Base Media
Codec ID                         : isom
File size                        : 1.74 GiB
Duration                         : 1h 34mn
Overall bit rate                 : 2 619 Kbps
Encoded date                     : UTC 2012-02-03 08:16:59
Tagged date                      : UTC 2012-02-03 08:16:59
Writing application              : Yamb 2.1.0.0 

Video
ID                               : 1
Format                           : AVC
Format/Info                      : Advanced Video Codec
Format profile                   : High@L3.1
Format settings, CABAC           : Yes
Format settings, ReFrames        : 5 frames
Codec ID                         : avc1
Codec ID/Info                    : Advanced Video Coding
Duration                         : 1h 34mn
Bit rate mode                    : Variable
Bit rate                         : 2 214 Kbps
Maximum bit rate                 : 16.2 Mbps
Width                            : 1 280 pixels
Height                           : 720 pixels
Display aspect ratio             : 16:9
Frame rate mode                  : Variable
Frame rate                       : 23.976 fps
Minimum frame rate               : 0.855 fps
Maximum frame rate               : 24.390 fps
Color space                      : YUV
Chroma subsampling               : 4:2:0
Bit depth                        : 8 bits
Scan type                        : Progressive
Bits/(Pixel*Frame)               : 0.100
Stream size                      : 1.44 GiB (83%)
Writing library                  : x264 core 112
Encoding settings                : cabac=1 / ref=5 / deblock=1:0:0 / analyse=0x3:0x113 / me=hex / subme=7 / psy=1 / psy_rd=1.00:0.00 / mixed_ref=1 / me_range=16 / chroma_me=1 / trellis=1 / 8x8dct=1 / cqm=0 / deadzone=21,11 / fast_pskip=1 / chroma_qp_offset=-2 / threads=3 / sliced_threads=0 / nr=0 / decimate=1 / interlaced=0 / constrained_intra=0 / bframes=5 / b_pyramid=2 / b_adapt=2 / b_bias=0 / direct=1 / weightb=1 / open_gop=0 / weightp=2 / keyint=240 / keyint_min=23 / scenecut=40 / intra_refresh=0 / rc_lookahead=50 / rc=abr / mbtree=1 / bitrate=2214 / ratetol=1.0 / qcomp=0.60 / qpmin=3 / qpmax=51 / qpstep=4 / ip_ratio=1.40 / aq=1:1.00
Encoded date                     : UTC 2012-02-03 23:51:59
Tagged date                      : UTC 2012-02-03 08:19:41
Color primaries                  : BT.709-5, BT.1361, IEC 61966-2-4, SMPTE RP177
Transfer characteristics         : BT.709-5, BT.1361
Matrix coefficients              : BT.709-5, BT.1361, IEC 61966-2-4 709, SMPTE RP177

Audio
ID                               : 2
Format                           : AAC
Format/Info                      : Advanced Audio Codec
Format version                   : Version 4
Format profile                   : LC
Format settings, SBR             : No
Codec ID                         : 40
Duration                         : 1h 34mn
Bit rate mode                    : Variable
Bit rate                         : 448 Kbps
Maximum bit rate                 : 681 Kbps
Channel(s)                       : 6 channels
Channel positions                : Front: L C R, Side: L R, LFE
Sampling rate                    : 48.0 KHz
Stream size                      : 304 MiB (17%)
Language                         : English
Encoded date                     : UTC 2012-02-03 08:19:01
Tagged date                      : UTC 2012-02-03 08:19:41

Enjoy...

[img]http://img809.imageshack.us/img809/899/seasonofthewitch2011720.png[/img]

[img]http://img46.imageshack.us/img46/899/seasonofthewitch2011720.png[/img]

[img]http://img546.imageshack.us/img546/899/seasonofthewitch2011720.png[/img]

[img]http://img841.imageshack.us/img841/899/seasonofthewitch2011720.png[/img]

[img]http://img269.imageshack.us/img269/899/seasonofthewitch2011720.png[/img]

[img]http://img9.imageshack.us/img9/8880/seasonofthewitch2011720x.png[/img]